# xmcd CD database file
#
# Track frame offsets:
#	150
#	22245
#	40752
#	68285
#	96170
#	123555
#	152962
#	178587
#	203607
#	222695
#	248637
#	273680
#
# Disc length: 4009 seconds
#
# Revision: 4
# Processed by: cddbd v1.5.2PL0 Copyright (c) Steve Scherf et al.
# Submitted via: CDex 1.70beta2
#
DISCID=ae0fa70c
DTITLE=長渕剛 - 昭和
DYEAR=1989
DGENRE=Folk
TTITLE0=くそったれの人生
TTITLE1=GO STRAIGHT
TTITLE2=いつかの少年
TTITLE3=とんぼ
TTITLE4=シェリー
TTITLE5=激愛
TTITLE6=NEVER CHANGE
TTITLE7=プンプンプン
TTITLE8=裸足のまんまで
TTITLE9=ほんまにうち寂しかったんよ
TTITLE10=明け方までにはケリがつく
TTITLE11=昭和
EXTD=YEAR: 1989
EXTT0=
EXTT1=
EXTT2=
EXTT3=
EXTT4=
EXTT5=
EXTT6=
EXTT7=
EXTT8=
EXTT9=
EXTT10=
EXTT11=
PLAYORDER=
